<?xml version="1.0" encoding="UTF-8" standalone="no"?>
<svg
   viewBox="0 0 63.229793 56.390548"
   fill="#ffffff"
   fill-rule="evenodd"
   stroke="#000000"
   stroke-linecap="round"
   stroke-linejoin="round"
   version="1.1"
   id="svg33"
   sodipodi:docname="scroll.svg"
   width="16.729549mm"
   height="14.919999mm"
   xml:space="preserve"
   inkscape:version="1.4 (86a8ad7, 2024-10-11)"
   xmlns:inkscape="http://www.inkscape.org/namespaces/inkscape"
   xmlns:sodipodi="http://sodipodi.sourceforge.net/DTD/sodipodi-0.dtd"
   xmlns="http://www.w3.org/2000/svg"
   xmlns:svg="http://www.w3.org/2000/svg"><sodipodi:namedview
     id="namedview33"
     pagecolor="#ffffff"
     bordercolor="#000000"
     borderopacity="0.25"
     inkscape:showpageshadow="2"
     inkscape:pageopacity="0.0"
     inkscape:pagecheckerboard="0"
     inkscape:deskcolor="#d1d1d1"
     inkscape:zoom="7.3785055"
     inkscape:cx="2.1006964"
     inkscape:cy="32.323619"
     inkscape:window-width="1920"
     inkscape:window-height="1001"
     inkscape:window-x="-9"
     inkscape:window-y="-9"
     inkscape:window-maximized="1"
     inkscape:current-layer="svg33"
     inkscape:document-units="mm" /><defs
     id="defs25"><radialGradient
       id="A"
       cx="3.4134305"
       cy="11.775585"
       r="15.460274"
       fx="0.74786586"
       fy="13.908036"
       gradientTransform="scale(0.74048888,1.3504592)"
       gradientUnits="userSpaceOnUse"><stop
         offset="0%"
         stop-color="#f1ebe0"
         id="stop1" /><stop
         offset="23.3%"
         stop-color="#f1ebe0"
         id="stop2" /><stop
         offset="54.6%"
         stop-color="#d2c3a6"
         id="stop3" /><stop
         offset="100%"
         stop-color="#a68d57"
         id="stop4" /></radialGradient><linearGradient
       id="B"
       x1="4.762383"
       y1="12.164018"
       x2="11.071998"
       y2="12.164018"
       gradientTransform="scale(0.85371266,1.1713543)"
       gradientUnits="userSpaceOnUse"><stop
         offset=".3%"
         stop-color="#d2c3a6"
         id="stop5" /><stop
         offset="69.7%"
         stop-color="#c3b08a"
         id="stop6" /></linearGradient><linearGradient
       id="C"
       x1="5.4698696"
       y1="18.521002"
       x2="8.6288815"
       y2="18.521002"
       gradientTransform="scale(1.1180338,0.89442736)"
       gradientUnits="userSpaceOnUse"><stop
         offset="27.2%"
         stop-color="#b09969"
         id="stop7" /><stop
         offset="95.9%"
         stop-color="#7b6842"
         id="stop8" /></linearGradient><linearGradient
       id="D"
       x1="4.693995"
       y1="18.457052"
       x2="18.030676"
       y2="10.269039"
       gradientTransform="scale(0.8264048,1.2100607)"
       gradientUnits="userSpaceOnUse"><stop
         offset=".3%"
         stop-color="#e8e0d0"
         id="stop9" /><stop
         offset="61.7%"
         stop-color="#d2c3a6"
         id="stop10" /><stop
         offset="97.8%"
         stop-color="#b7a175"
         id="stop11" /></linearGradient><linearGradient
       id="E"
       x1="33.85144"
       y1="0.40496489"
       x2="40.803768"
       y2="63.159386"
       gradientTransform="scale(0.84514704,1.1832261)"
       gradientUnits="userSpaceOnUse"><stop
         offset="0%"
         stop-color="#f1ebe0"
         id="stop12" /><stop
         offset="78.3%"
         stop-color="#f1ebe0"
         id="stop13" /><stop
         offset="100%"
         stop-color="#d2c3a6"
         id="stop14" /></linearGradient><radialGradient
       id="F"
       cx="26.037041"
       cy="62.797432"
       r="9.711729"
       fx="26.037041"
       fy="62.797432"
       gradientTransform="scale(0.93657643,1.0677185)"
       gradientUnits="userSpaceOnUse"><stop
         offset="6.4%"
         stop-color="#f1ebe0"
         id="stop15" /><stop
         offset="54.6%"
         stop-color="#d2c3a6"
         id="stop16" /><stop
         offset="100%"
         stop-color="#a68d57"
         id="stop17" /></radialGradient><linearGradient
       id="G"
       x1="20.068947"
       y1="80.701317"
       x2="23.106466"
       y2="80.701317"
       gradientTransform="scale(1.2378815,0.80783174)"
       gradientUnits="userSpaceOnUse"><stop
         offset=".3%"
         stop-color="#d2c3a6"
         id="stop18" /><stop
         offset="69.7%"
         stop-color="#c3b08a"
         id="stop19" /></linearGradient><linearGradient
       id="H"
       x1="26.784016"
       y1="64.091553"
       x2="32.927696"
       y2="64.091553"
       gradientTransform="scale(0.9565945,1.045375)"
       gradientUnits="userSpaceOnUse"><stop
         offset=".3%"
         stop-color="#e8e0d0"
         id="stop20" /><stop
         offset="61.7%"
         stop-color="#d2c3a6"
         id="stop21" /><stop
         offset="97.8%"
         stop-color="#b7a175"
         id="stop22" /></linearGradient><linearGradient
       id="I"
       x1="29.874044"
       y1="83.33033"
       x2="31.357885"
       y2="112.34128"
       gradientTransform="scale(1.4978933,0.66760428)"
       gradientUnits="userSpaceOnUse"><stop
         offset="0%"
         stop-color="#f1ebe0"
         id="stop23" /><stop
         offset="42.2%"
         stop-color="#f1ebe0"
         id="stop24" /><stop
         offset="100%"
         stop-color="#d2c3a6"
         id="stop25" /></linearGradient><radialGradient
       id="A-1"
       cx="3.4134305"
       cy="11.775585"
       r="15.460274"
       fx="0.74786586"
       fy="13.908036"
       gradientTransform="scale(0.74048888,1.3504592)"
       gradientUnits="userSpaceOnUse"><stop
         offset="0%"
         stop-color="#f1ebe0"
         id="stop1-3" /><stop
         offset="23.3%"
         stop-color="#f1ebe0"
         id="stop2-5" /><stop
         offset="54.6%"
         stop-color="#d2c3a6"
         id="stop3-9" /><stop
         offset="100%"
         stop-color="#a68d57"
         id="stop4-8" /></radialGradient><radialGradient
       id="F-0"
       cx="26.037041"
       cy="62.797432"
       r="9.711729"
       fx="26.037041"
       fy="62.797432"
       gradientTransform="scale(0.93657643,1.0677185)"
       gradientUnits="userSpaceOnUse"><stop
         offset="6.4%"
         stop-color="#f1ebe0"
         id="stop15-9" /><stop
         offset="54.6%"
         stop-color="#d2c3a6"
         id="stop16-7" /><stop
         offset="100%"
         stop-color="#a68d57"
         id="stop17-3" /></radialGradient></defs><symbol
     id="J"
     overflow="visible"
     transform="translate(-192.92683,32.595071)"><g
       stroke="#3a2e17"
       stroke-linejoin="miter"
       fill-rule="nonzero"
       stroke-width="0.207"
       id="g33"><path
         d="m 0.896,16.342 c 0.139,0.068 0.255,0.106 0.412,0.121 0.128,0.013 0.259,-0.013 0.386,-0.002 0.108,0.01 0.214,0.052 0.319,0.049 -0.099,0.17 -0.327,0.285 -0.385,0.471 0.11,0.05 0.302,0.005 0.37,0.118 0.068,0.113 -0.108,0.234 -0.162,0.343 -0.065,0.133 -0.063,0.265 -0.131,0.395 a 0.67,0.67 0 0 0 -0.074,0.438 c 0.502,0.126 0.128,0.422 -0.047,0.654 a 2.71,2.71 0 0 0 -0.253,0.405 c -0.038,0.074 -0.177,0.336 -0.193,0.323 0,0 0.486,1.658 1.941,3.032 1.455,1.374 2.074,1.658 3.801,0.728 1.803,-0.97 6.065,-13.95 6.065,-13.95 l -2.88,-7.722 c 0,0 -2.985,-1.62 -4.035,-1.577 -1.05,0.043 -2.87,2.183 -2.87,2.183 0,0 -2.264,2.386 -2.831,4.933 -0.567,2.547 -0.256,5.081 -0.134,6.335 0.122,1.254 0.701,2.723 0.701,2.723 z"
         fill="url(#A)"
         id="path25"
         style="fill:url(#A-1)" /><path
         d="M 6.234,17.798 C 5.623,17.555 4.211,16.863 4.171,14.436 4.131,12.009 4.769,10.89 5.666,10.677 c 0.572,-0.137 2.306,0.49 2.306,0.49 l 1.374,2.911 -0.363,3.032 c 0,0 -2.139,0.93 -2.749,0.688 z"
         fill="url(#B)"
         id="path26"
         style="fill:url(#B)" /><path
         d="m 9.436,15.281 c 0,0 -0.51,0.133 -1.132,0.121 -0.381,-0.007 -0.768,-0.121 -0.93,0 -0.174,0.13 0.162,1.011 -0.202,1.496 -0.364,0.485 -1.06,0.819 -0.939,0.899 0.121,0.08 2.354,0.193 2.96,-0.211 0.606,-0.404 0.243,-2.305 0.243,-2.305 z"
         fill="url(#C)"
         id="path27"
         style="fill:url(#C)" /><path
         d="m 5.495,23.963 5.954,-1.273 c 2.022,-0.324 3.598,-0.364 3.598,-0.364 L 14.602,12.582 12.5,9.953 c 0,0 -1.819,0.445 -3.235,0.566 -1.416,0.121 -1.294,0.158 -3.599,0.158 0,0 0.931,0.232 1.739,1.122 a 6.07,6.07 0 0 1 1.511,4.098 c -0.04,1.698 -0.257,4.73 -1.47,6.348 -0.66,0.88 -1.951,1.718 -1.951,1.718 z"
         fill="url(#D)"
         id="path28"
         style="fill:url(#D)" /><path
         d="M 4.146,1.036 C 4.683,0.467 5.271,0.287 6.092,0.041 7.374,-0.344 19.455,2.15 29.333,1.863 L 47.398,1.14 c 0,0 0.826,0 1.961,0.517 1.858,0.826 3.716,6.451 3.716,6.451 L 52.043,8.417 51.32,8.83 c 0,0 1.677,0.568 2.193,1.29 0.516,0.722 2.632,7.51 2.761,16.826 0.062,4.438 -1.238,13.316 -1.238,13.316 l -0.756,0.19 -0.173,0.636 -0.895,0.518 0.895,-0.105 -0.31,0.723 0.413,0.826 c 0,0 -1.135,0.206 -0.722,0.619 0.413,0.413 1.136,0.31 0.929,1.342 -0.207,1.032 -0.723,3.819 -0.826,5.471 -0.516,3.819 1.239,8.877 1.239,8.877 l 1.445,9.703 -12.386,0.103 c 0,0 -15.751,5 -17.505,5.206 -1.754,0.206 -2.108,0.884 -6.03,-1.181 -3.922,-2.065 -6.916,-6.813 -6.916,-6.813 l 0.103,-1.032 c 0.075,-0.15 0.393,-0.342 0.396,-0.519 0.004,-0.203 -0.311,-0.259 -0.376,-0.431 -0.125,-0.326 0.635,-1.006 -0.109,-0.923 -0.039,-0.097 -0.034,-0.183 0.003,-0.278 a 3.65,3.65 0 0 0 0.732,-0.402 c 0.265,-0.203 -0.1,-0.331 0.235,-0.554 -0.703,-0.465 -0.095,-0.485 0.211,-1.024 -0.65,-0.462 -0.486,-0.122 -1.186,-0.225 0.054,-0.155 0.131,-0.32 0.186,-0.475 -0.361,-0.086 -0.663,0.168 -1.007,0.067 -0.124,-0.42 0.39,-0.812 0.381,-1.203 -0.421,-0.208 -1.12,0.187 -1.533,-0.227 -0.413,-0.414 -0.515,-4.439 0.31,-9.29 l 2.477,-13.936 c 0,0 0.929,-15.483 -0.825,-21.367 C 11.682,8.674 10.108,3.586 8.901,2.027 8.25,1.188 7.317,0.353 5.828,0.572 4.453,0.774 3.016,2.518 3.016,2.518 c 0,0 0.696,-1.021 1.13,-1.481 z"
         fill="url(#E)"
         id="path29"
         style="fill:url(#E)" /><path
         d="m 24.034,59.333 c -1.294,1.133 -2.761,2.457 -2.6,5.813 0.161,3.356 2.669,4.771 4.691,4.932 2.022,0.161 5.66,-5.661 5.66,-5.661 l -0.97,-4.528 -4.407,-1.658 c 0,0 -1.08,-0.031 -2.374,1.101 z"
         fill="url(#F)"
         id="path30"
         style="fill:url(#F-0)" /><path
         d="m 26.688,66.109 c -0.745,0.039 -1.561,0.317 -1.698,0.158 -0.243,-0.283 0.566,-2.062 1.576,-2.184 1.01,-0.122 1.653,0.633 1.653,0.633 0,0 0.494,1.25 0.171,1.453 -0.141,0.088 -1.125,-0.091 -1.703,-0.06 z"
         fill="url(#G)"
         id="path31"
         style="fill:url(#G)" /><path
         d="m 26.367,64.135 c 0,0 0.383,-0.201 0.913,-0.188 l 2.777,-0.042 c 1.051,-0.041 1.324,0.028 1.324,0.028 l -0.647,3.963 -0.293,1.391 c 0,0 -0.43,0.317 -1.709,0.598 -1.751,0.385 -3.093,0.154 -3.093,0.154 0,0 1.658,-0.202 2.183,-1.901 0.525,-1.699 0.406,-3.232 -0.201,-3.636 -0.607,-0.404 -1.254,-0.368 -1.254,-0.368 z"
         fill="url(#H)"
         id="path32"
         style="fill:url(#H)" /><path
         d="m 29.971,69.971 c 0.171,0 0.387,-0.064 0.555,-0.044 0.014,0.124 -0.082,0.118 -0.07,0.226 0.207,0.028 0.301,0.04 0.47,0.178 0.122,0.1 0.248,0.269 0.402,0.315 -0.386,-0.015 -0.75,-0.085 -1.11,0.05 -0.166,0.062 -0.302,0.155 -0.453,0.242 -0.158,0.093 -0.359,0.139 -0.447,0.273 0,0 -0.526,1.213 -1.172,1.779 -0.646,0.566 -1.253,0.97 -1.779,1.213 -0.526,0.243 -0.89,0.324 -0.89,0.324 0,0 1.848,-0.229 3.81,-0.712 4.691,-1.153 12.449,-3.242 14.587,-3.413 3.033,-0.243 11.846,-0.445 13.99,-0.243 2.144,0.202 6.268,0.606 6.794,0.485 0.526,-0.121 1.415,-0.566 2.344,-3.437 0.929,-2.871 -1.091,-7.763 -2.224,-9.138 -1.133,-1.375 -2.628,-2.061 -3.275,-2.304 -0.647,-0.243 -1.253,-0.242 -2.224,-0.08 -0.971,0.162 -2.749,1.212 -9.906,2.142 -7.157,0.93 -21.243,-0.132 -23.162,0.267 -1.025,0.214 -1.786,0.947 -1.786,0.947 0,0 1.496,-0.728 2.709,-0.445 1.213,0.283 2.264,1.618 2.79,2.83 0.526,1.212 0.929,3.194 0.768,4.568 -0.161,1.374 -0.722,3.977 -0.722,3.977 z"
         fill="url(#I)"
         id="path33"
         style="fill:url(#I)" /></g></symbol><path
     id="path5-1-9"
     style="fill:#ffffff;fill-opacity:1;fill-rule:evenodd;stroke:#000000;stroke-width:1.88976;stroke-linejoin:round;stroke-dasharray:none;stroke-opacity:1"
     d="m 8.445806,0.94488 c 4.142626,0 7.500926,3.3582615 7.500888,7.5009261 l -8.69e-4,39.4990119 c 0,4.142626 3.358261,7.500888 7.500926,7.50085 4.142626,0 7.500926,-3.358261 7.500888,-7.500888 H 47.83831 53.838348 L 53.839179,8.4458061 C 53.839141,4.3031793 50.48088,0.94488 46.338253,0.94488 Z"
     sodipodi:nodetypes="cccccccccc" /><path
     d="m 47.946278,11.43679 v 2 h -26 v -2 z"
     style="-inkscape-font-specification:Arial;fill:#000050;fill-opacity:1;stroke:none;stroke-width:0;stroke-dasharray:none"
     id="path1-5-5" /><path
     d="m 47.946278,18.624423 v 2 h -26 v -2 z"
     style="-inkscape-font-specification:Arial;fill:#5050a0;fill-opacity:1;stroke:none;stroke-width:0;stroke-dasharray:none"
     id="path1-4-3-3" /><path
     d="m 47.946278,25.812055 v 2 h -26 v -2 z"
     style="-inkscape-font-specification:Arial;fill:#a0a0d2;fill-opacity:1;stroke:none;stroke-width:0;stroke-dasharray:none"
     id="path1-4-9-61-4" /><path
     d="m 47.946278,32.999647 v 2 h -26 v -2 z"
     style="-inkscape-font-specification:Arial;fill:#bebee6;fill-opacity:1;stroke:none;stroke-width:0;stroke-dasharray:none"
     id="path1-4-9-6-8-3" /><path
     d="m 47.946278,40.187241 v 2 h -26 v -2 z"
     style="-inkscape-font-specification:Arial;fill:#d7d7ff;fill-opacity:1;stroke:none;stroke-width:0;stroke-dasharray:none"
     id="path1-4-9-6-5-6-2" /><path
     style="fill:#a0a0a0;fill-opacity:1;fill-rule:evenodd;stroke:#000000;stroke-width:1.88976;stroke-linejoin:round"
     d="m 8.445806,0.94488 c -4.142665,0 -7.500926,3.3582615 -7.500926,7.5008883 l 15.001814,3.78e-5 c 0,-4.1426268 -3.358262,-7.5009261 -7.500888,-7.5009261 z"
     id="path65-9-0-9-0-0-0-0-9-12-6-6" /><path
     id="path8"
     style="fill:#e6e6e6;fill-opacity:1;fill-rule:evenodd;stroke:#000000;stroke-width:1.88976;stroke-linejoin:round;stroke-dasharray:none;stroke-opacity:1"
     d="m 23.446713,55.445668 c 4.142627,0 7.500926,-3.358261 7.500926,-7.500888 h 31.337273 c 0,4.142627 -3.358262,7.500888 -7.500889,7.500888 z"
     sodipodi:nodetypes="ccccc" /></svg>
